<svg width="26" height="31" viewBox="0 0 26 31" fill="none" xmlns="http://www.w3.org/2000/svg">
<path id="Vector" d="M23.1111 21.6667V14.1556C22.3889 14.3 21.6667 14.4444 20.9444 14.4444H20.2222V23.1111H5.77778V13C5.77778 8.95556 8.95556 5.77778 13 5.77778C13.1444 3.9 14.0111 2.31111 15.1667 1.01111C14.7333 0.433333 13.8667 0 13 0C11.4111 0 10.1111 1.3 10.1111 2.88889V3.32222C5.77778 4.62222 2.88889 8.52222 2.88889 13V21.6667L0 24.5556V26H26V24.5556L23.1111 21.6667ZM10.1111 27.4444C10.1111 29.0333 11.4111 30.3333 13 30.3333C14.5889 30.3333 15.8889 29.0333 15.8889 27.4444H10.1111ZM26 6.5C26 9.24444 23.6889 11.5556 20.9444 11.5556C18.2 11.5556 15.8889 9.24444 15.8889 6.5C15.8889 3.75556 18.2 1.44444 20.9444 1.44444C23.6889 1.44444 26 3.75556 26 6.5Z" fill="white"/>
</svg>
